<?xml version="1.0" encoding="UTF-8" standalone="no"?>
<svg
   xmlns:osb="http://www.openswatchbook.org/uri/2009/osb"
   xmlns:dc="http://purl.org/dc/elements/1.1/"
   xmlns:cc="http://creativecommons.org/ns#"
   xmlns:rdf="http://www.w3.org/1999/02/22-rdf-syntax-ns#"
   xmlns:svg="http://www.w3.org/2000/svg"
   xmlns="http://www.w3.org/2000/svg"
   width="244.74274"
   height="171.87517"
   viewBox="0 0 244.74274 171.87516"
   id="svg3391"
   version="1.1">
  <defs
     id="defs3393">
    <linearGradient
       osb:paint="solid"
       id="linearGradient5572">
      <stop
         id="stop5574"
         offset="0"
         style="stop-color:#000000;stop-opacity:1;" />
    </linearGradient>
  </defs>
  <metadata
     id="metadata3396">
    <rdf:RDF>
      <cc:Work
         rdf:about="">
        <dc:format>image/svg+xml</dc:format>
        <dc:type
           rdf:resource="http://purl.org/dc/dcmitype/StillImage" />
        <dc:title></dc:title>
      </cc:Work>
    </rdf:RDF>
  </metadata>
  <g
     transform="translate(-433.24299,-150.43189)"
     id="g4393">
    <ellipse
       ry="28.984552"
       rx="28.009111"
       cy="206.64754"
       cx="611.74884"
       id="path4855"
       style="fill:#ffffff;fill-opacity:1;stroke:none;stroke-opacity:1" />
    <g
       id="g4519">
      <g
         style="fill:#333333"
         id="g4361"
         transform="translate(215.61436,67.323563)">
        <path
           style="fill:#333333"
           d="m 388.239,122.05777 c -2.345,2.595 -3.35,5.744 -3.349,9.205 0,5.004 2.708,7.902 7.812,8.457 4.625,0.504 7.369,-1.619 8.444,-6.603 2.52116,-9.13646 -6.8049,-17.36015 -12.907,-11.059 z"
           id="path4363" />
        <path
           d="m 241.41482,142.51281 c -6.04479,6.23703 7.209,23.89393 11.72,32.63893 -1.467,1.611 -2.928,3.22 -4.526,4.979 1.375,0.98304 2.257,1.61304 3.137,2.24204 -1.65,2.13199 -3.118,4.02899 -4.794,6.19399 1.655,0.792 2.845,1.362 3.811,1.825 -1.562,2.3729 -3.073,4.6689 -5.159,7.8399 2.961,-0.208 4.577,-0.321 6.351,-0.445 -1.569,2.168 -2.929,4.046 -4.72,6.521 10.18,1.813 18.323,-1.086 25.959,-5.633 5.975,4.795 11.741,9.423 17.802,14.287 -5.087,3.576 -9.566,7.29498 -10.201,13.91398 1.774,0.235 3.165,0.42 4.417,0.586 -0.963,3.431 -1.816,6.472 -2.854,10.169 2.645,-0.374 4.282,-0.606 5.711,-0.808 -0.956,3.561 -1.926,7.172 -2.896,10.784 0.438,0.233 0.875,0.467 1.313,0.701 2.005,-1.124 4.01,-2.248 6.076,-3.406 -0.842,3.255 -1.661,6.424 -2.725,10.541 15.438,-4.341 25.398,-12.929 31.08,-27.042 37.53459,24.1113 127.19179,9.1929 136.0646,-26.81378 l -3.76209,1.3377 c -11.09355,9.3685 -13.38874,8.1273 -21.21734,0.7531 -0.27594,-0.1365 -1.43088,-0.084 -1.71517,-0.2179 2.291,2.964 1.621,9.009 1.621,9.009 0,0 -4.095,0.679 -7.929,0.277 -3.707,-0.389 -4.5435,-1.9665 -8.9015,-3.6245 l -1.26026,-0.1747 c 1.26375,0.319 1.20443,3.032 0.57326,4.4876 -24.982,3.431 -55.6115,-6.5465 -68.4215,-27.3194 20.55375,6.4741 45.73712,6.1697 61.51059,-4.87189 3.60516,2.0944 1.66104,6.76519 1.66104,6.76519 l 2.04392,-1.5675 c 0,0 12.77299,-20.43372 18.51804,-4.22569 l 3.70159,-4.49475 c 4.67463,-11.60271 5.44806,-15.31401 12.75844,-8.05189 l 3.49192,1.833 c -3.58368,-11.51272 6.99804,-18.86407 9.72807,-9.60894 l 2.60182,2.49572 c 5.06358,-46.54917 -40.80024,-72.95027 -64.29647,-73.24924 l 4e-5,-7e-5 c -27.79448,3.73675 -36.69099,9.84961 -41.68326,11.71673 -12.709,-15.586 -28.122,-20.31201 -39.752,-19.11001 1.275,4.00301 2.518,7.90201 3.653,11.46401 -7.055,-2.859 -13.999,-5.672 -20.942,-8.48501 -0.424,0.61001 -0.849,1.22101 -1.273,1.83101 3.68,5.129 7.359,10.258 11.07,15.431 -2.929,-0.33 -5.778,-0.651 -9.587,-1.08 1.375,3.296 2.38,5.704 3.265,7.825 l -12.27,-2.968 c -0.584,0.855 -1.169,1.71 -1.753,2.565 3.461,2.348 6.922,4.696 11.057,7.502 -4.225,1.144 -6.507,1.761 -9.627,2.606 1.939,2.388 3.362,4.14 5.694,7.012 -6.67468,13.79803 -38.32605,17.16856 -40.83688,9.88041 l 0.62439,3.59237 c -0.27719,-1.32226 0.97621,-3.48186 2.16512,-4.51776 12.71838,-11.08623 10.39362,-35.69566 -5.47153,-45.09906 0.19852,5.65208 0.37105,10.58538 0.53177,15.18202 -1.62532,-1.55247 -3.43184,-3.27867 -6.33612,-6.05426 -0.51014,5.26532 -0.88122,9.08806 -1.23225,12.71255 -1.79716,-1.30323 -3.63138,-2.63247 -6.55551,-4.75225 -0.10745,4.20608 -0.1799,7.05865 -0.23709,9.29722 -2.77639,-3.17705 -5.73979,-6.57055 -8.70397,-9.96286 -0.44578,0.2531 -0.89275,0.50545 -1.33855,0.75856 -0.20962,2.7136 -0.41925,5.42721 -0.62569,8.09724 -2.80449,-3.46435 -5.43968,-6.7188 -8.07508,-9.97423 l -1.44652,0.79433 c -0.96811,8.04693 -0.33447,16.27639 5.31775,22.37695 5.33082,5.75374 12.30571,9.98363 18.25548,14.64742 m 174.18494,2.17763 c -2.74,12.703 -9.734,18.112 -21.521,16.828 -13.011,-1.417 -19.905,-8.802 -19.911,-21.556 0,-8.821 2.558,-16.848 8.535,-23.461 8.777,-9.711 23.692,-8.201 29.78,3.416 4.05678,11.14656 5.21707,14.71225 3.117,24.773 z"
           id="path4365"
           style="fill:#333333" />
      </g>
    </g>
  </g>
  <flowRoot
     transform="translate(-621.73661,249.56811)"
     style="font-style:normal;font-weight:normal;font-size:40px;line-height:125%;font-family:sans-serif;letter-spacing:0px;word-spacing:0px;fill:#000000;fill-opacity:1;stroke:none;stroke-width:1px;stroke-linecap:butt;stroke-linejoin:miter;stroke-opacity:1"
     id="flowRoot5656"
     xml:space="preserve"><flowRegion
       id="flowRegion5658"><rect
         y="519.49237"
         x="-178.36647"
         height="113.70863"
         width="622.0531"
         id="rect5660" /></flowRegion><flowPara
       id="flowPara5662" /></flowRoot>  <g
     transform="translate(-621.73661,249.56811)"
     id="layer2" />
  <g
     transform="translate(-621.73661,249.56811)"
     id="layer3" />
  <g
     transform="translate(-621.73661,249.56811)"
     id="g4283" />
</svg>
