<?xml version="1.0" standalone="no"?>
<!DOCTYPE svg PUBLIC "-//W3C//DTD SVG 1.1//EN" "http://www.w3.org/Graphics/SVG/1.1/DTD/svg11.dtd">
<svg width="100%" height="100%" viewBox="0 0 343 343" version="1.1" xmlns="http://www.w3.org/2000/svg" xmlns:xlink="http://www.w3.org/1999/xlink" xml:space="preserve" style="fill-rule:evenodd;clip-rule:evenodd;stroke-linejoin:round;stroke-miterlimit:1.41421;">
    <g transform="matrix(1,0,0,1,-85.1491,-398.61)">
        <g transform="matrix(1,0,0,1,-289.428,146.684)">
            <g transform="matrix(1,0,0,1,291.328,-136.292)">
                <circle cx="254.589" cy="559.558" r="171.34" style="fill:rgb(252,29,66);"/>
            </g>
        </g>
        <g transform="matrix(1,0,0,1,-289.428,146.684)">
            <g transform="matrix(1,0,0,1,6.02884,10.7062)">
                <g transform="matrix(0.552823,0.552823,-0.552823,0.552823,606.473,-174.824)">
                    <path d="M498.087,417.535C535.732,417.504 573.352,431.824 602.022,460.494C630.692,489.164 645.013,526.784 644.981,564.429L498.087,564.429L498.087,417.535Z" style="fill:white;"/>
                </g>
                <g transform="matrix(1,0,0,1,289.428,-146.684)">
                    <path d="M361.575,665.391C334.457,692.473 296.99,709.244 255.637,709.244C172.85,709.244 105.637,642.031 105.637,559.244C105.637,476.456 172.85,409.244 255.637,409.244C296.99,409.244 334.457,426.014 361.575,453.097L255.429,559.244L361.575,665.391ZM204.05,470.102C215.184,470.102 224.224,479.142 224.224,490.276C224.224,501.411 215.184,510.45 204.05,510.45C192.916,510.45 183.876,501.411 183.876,490.276C183.876,479.142 192.916,470.102 204.05,470.102Z" style="fill:white;"/>
                </g>
            </g>
        </g>
    </g>
</svg>
